<svg id="Layer_1" data-name="Layer 1" xmlns="http://www.w3.org/2000/svg" viewBox="0 0 496.63 488.15"><defs><style>.cls-1{stroke:#231f20;stroke-miterlimit:10;}</style></defs><title>gift_icon</title><rect x="78.45" y="224.06" width="339.41" height="264.09" rx="12" ry="12"/><rect x="593.15" y="141.06" width="34.56" height="159.51" rx="12" ry="12" transform="translate(103.49 -366.05) rotate(39.12)"/><rect x="214.18" y="141.06" width="34.56" height="159.51" rx="12" ry="12" transform="matrix(-0.78, 0.63, -0.63, -0.78, 377.73, 215.69)"/><polygon class="cls-1" points="149.36 105.21 176.39 124.72 207.78 113.51 197.58 145.24 217.94 171.63 184.61 171.74 165.8 199.26 155.4 167.59 123.42 158.2 150.32 138.53 149.36 105.21"/><polygon class="cls-1" points="239.35 1.11 248.24 12.6 262.75 11.79 254.57 23.8 259.82 37.36 245.87 33.28 234.61 42.47 234.17 27.94 221.95 20.07 235.63 15.16 239.35 1.11"/><polygon class="cls-1" points="348.39 77.5 351.8 100.98 373.06 111.48 351.79 121.97 348.37 145.45 331.82 128.46 308.43 132.46 319.48 111.47 308.45 90.47 331.83 94.48 348.39 77.5"/></svg>