<svg id="Layer_1" data-name="Layer 1" xmlns="http://www.w3.org/2000/svg" viewBox="0 0 497.63 488.65"><defs><style>.cls-1{stroke:#231f20;stroke-miterlimit:10;}</style></defs><title>gift_icon</title><rect class="cls-1" x="78.95" y="224.06" width="339.41" height="264.09" rx="12" ry="12"/><rect class="cls-1" x="593.15" y="141.06" width="34.56" height="159.51" rx="12" ry="12" transform="translate(103.99 -366.05) rotate(39.12)"/><rect class="cls-1" x="214.18" y="141.06" width="34.56" height="159.51" rx="12" ry="12" transform="translate(378.23 215.69) rotate(140.88)"/><polygon class="cls-1" points="149.86 105.21 176.89 124.72 208.28 113.51 198.08 145.24 218.44 171.63 185.11 171.74 166.3 199.26 155.9 167.59 123.92 158.2 150.82 138.53 149.86 105.21"/><polygon class="cls-1" points="239.85 1.11 248.74 12.6 263.25 11.79 255.07 23.8 260.32 37.36 246.37 33.28 235.11 42.47 234.67 27.94 222.45 20.07 236.13 15.16 239.85 1.11"/><polygon class="cls-1" points="348.89 77.5 352.3 100.98 373.56 111.48 352.29 121.97 348.87 145.45 332.32 128.46 308.93 132.46 319.98 111.47 308.95 90.47 332.33 94.48 348.89 77.5"/></svg>